REM DIRINDEX 1\2,1\3,1\4,1\5\6,1\5\7,1\8
REM DIRNAME folder01,folder02,folder03,folder04,folder05,folder06,folder07,folder08
TITLE ""
FILE "123 Åy123ÅzUnit7 (1393 probe_1404 disrupt).mp3" MP3
  TRACK 01 AUDIO
    TITLE "0:"
    INDEX 01 00:00:00
  TRACK 02 AUDIO
    TITLE "2:cjc115_4794"
    INDEX 01 00:00:07
  TRACK 03 AUDIO
    TITLE "0:"
    INDEX 01 00:01:11
  TRACK 04 AUDIO
    TITLE "3:cjc115_4795"
    INDEX 01 00:01:21
  TRACK 05 AUDIO
    TITLE "0:"
    INDEX 01 00:02:26
  TRACK 06 AUDIO
    TITLE "4:cjc115_4796"
    INDEX 01 00:02:36
  TRACK 07 AUDIO
    TITLE "0:"
    INDEX 01 00:05:65
  TRACK 08 AUDIO
    TITLE "2:cjc115_4797"
    INDEX 01 00:06:73
  TRACK 09 AUDIO
    TITLE "0:"
    INDEX 01 00:08:19
  TRACK 10 AUDIO
    TITLE "3:cjc115_4798"
    INDEX 01 00:08:30
  TRACK 11 AUDIO
    TITLE "0:"
    INDEX 01 00:09:69
  TRACK 12 AUDIO
    TITLE "4:cjc115_4799"
    INDEX 01 00:10:02
  TRACK 13 AUDIO
    TITLE "0:"
    INDEX 01 00:13:14
  TRACK 14 AUDIO
    TITLE "2:cjc115_4800"
    INDEX 01 00:14:21
  TRACK 15 AUDIO
    TITLE "0:"
    INDEX 01 00:15:32
  TRACK 16 AUDIO
    TITLE "3:cjc115_4801"
    INDEX 01 00:15:40
  TRACK 17 AUDIO
    TITLE "0:"
    INDEX 01 00:18:25
  TRACK 18 AUDIO
    TITLE "4:cjc115_4802"
    INDEX 01 00:18:27
  TRACK 19 AUDIO
    TITLE "0:"
    INDEX 01 00:23:28
  TRACK 20 AUDIO
    TITLE "2:cjc115_4803"
    INDEX 01 00:24:31
  TRACK 21 AUDIO
    TITLE "0:"
    INDEX 01 00:25:48
  TRACK 22 AUDIO
    TITLE "3:cjc115_4804"
    INDEX 01 00:25:54
  TRACK 23 AUDIO
    TITLE "0:"
    INDEX 01 00:28:55
  TRACK 24 AUDIO
    TITLE "4:cjc115_4805"
    INDEX 01 00:28:64
  TRACK 25 AUDIO
    TITLE "0:"
    INDEX 01 00:32:33
  TRACK 26 AUDIO
    TITLE "2:cjc115_4806"
    INDEX 01 00:33:40
  TRACK 27 AUDIO
    TITLE "0:"
    INDEX 01 00:34:55
  TRACK 28 AUDIO
    TITLE "3:cjc115_4807"
    INDEX 01 00:34:65
  TRACK 29 AUDIO
    TITLE "0:"
    INDEX 01 00:36:56
  TRACK 30 AUDIO
    TITLE "4:cjc115_4808"
    INDEX 01 00:36:66
  TRACK 31 AUDIO
    TITLE "0:"
    INDEX 01 00:40:58
  TRACK 32 AUDIO
    TITLE "2:cjc115_4809"
    INDEX 01 00:41:63
  TRACK 33 AUDIO
    TITLE "0:"
    INDEX 01 00:43:05
  TRACK 34 AUDIO
    TITLE "3:cjc115_4810"
    INDEX 01 00:43:13
  TRACK 35 AUDIO
    TITLE "0:"
    INDEX 01 00:44:14
  TRACK 36 AUDIO
    TITLE "4:cjc115_4811"
    INDEX 01 00:44:26
  TRACK 37 AUDIO
    TITLE "0:"
    INDEX 01 00:47:72
  TRACK 38 AUDIO
    TITLE "2:cjc115_4812"
    INDEX 01 00:49:00
  TRACK 39 AUDIO
    TITLE "0:"
    INDEX 01 00:50:27
  TRACK 40 AUDIO
    TITLE "3:cjc115_4813"
    INDEX 01 00:50:29
  TRACK 41 AUDIO
    TITLE "0:"
    INDEX 01 00:52:61
  TRACK 42 AUDIO
    TITLE "4:cjc115_4814"
    INDEX 01 00:52:65
  TRACK 43 AUDIO
    TITLE "0:"
    INDEX 01 00:56:29
  TRACK 44 AUDIO
    TITLE "2:cjc115_4815"
    INDEX 01 00:57:39
  TRACK 45 AUDIO
    TITLE "0:"
    INDEX 01 00:58:50
  TRACK 46 AUDIO
    TITLE "3:cjc115_4816"
    INDEX 01 00:58:56
  TRACK 47 AUDIO
    TITLE "0:"
    INDEX 01 01:01:44
  TRACK 48 AUDIO
    TITLE "4:cjc115_4817"
    INDEX 01 01:01:52
  TRACK 49 AUDIO
    TITLE "0:"
    INDEX 01 01:04:74
  TRACK 50 AUDIO
    TITLE "2:cjc115_4818"
    INDEX 01 01:06:06
  TRACK 51 AUDIO
    TITLE "0:"
    INDEX 01 01:07:29
  TRACK 52 AUDIO
    TITLE "3:cjc115_4819"
    INDEX 01 01:07:37
  TRACK 53 AUDIO
    TITLE "0:"
    INDEX 01 01:08:36
  TRACK 54 AUDIO
    TITLE "4:cjc115_4820"
    INDEX 01 01:08:56
  TRACK 55 AUDIO
    TITLE "0:"
    INDEX 01 01:12:52
  TRACK 56 AUDIO
    TITLE "2:cjc115_4821"
    INDEX 01 01:13:57
  TRACK 57 AUDIO
    TITLE "0:"
    INDEX 01 01:14:74
  TRACK 58 AUDIO
    TITLE "3:cjc115_4822"
    INDEX 01 01:15:03
  TRACK 59 AUDIO
    TITLE "0:"
    INDEX 01 01:16:28
  TRACK 60 AUDIO
    TITLE "4:cjc115_4823"
    INDEX 01 01:16:34
  TRACK 61 AUDIO
    TITLE "0:"
    INDEX 01 01:18:31
  TRACK 62 AUDIO
    TITLE "2:cjc115_4824"
    INDEX 01 01:19:38
  TRACK 63 AUDIO
    TITLE "0:"
    INDEX 01 01:20:51
  TRACK 64 AUDIO
    TITLE "3:cjc115_4825"
    INDEX 01 01:20:61
  TRACK 65 AUDIO
    TITLE "0:"
    INDEX 01 01:22:27
  TRACK 66 AUDIO
    TITLE "4:cjc115_4826"
    INDEX 01 01:22:33
  TRACK 67 AUDIO
    TITLE "0:"
    INDEX 01 01:27:03
  TRACK 68 AUDIO
    TITLE "2:cjc115_4827"
    INDEX 01 01:28:10
  TRACK 69 AUDIO
    TITLE "0:"
    INDEX 01 01:29:23
  TRACK 70 AUDIO
    TITLE "3:cjc115_4828"
    INDEX 01 01:29:33
  TRACK 71 AUDIO
    TITLE "0:"
    INDEX 01 01:31:04
  TRACK 72 AUDIO
    TITLE "4:cjc115_4829"
    INDEX 01 01:31:10
  TRACK 73 AUDIO
    TITLE "0:"
    INDEX 01 01:35:18
